<?xml version="1.0" standalone="no"?>
<!DOCTYPE svg PUBLIC "-//W3C//DTD SVG 20010904//EN"
 "http://www.w3.org/TR/2001/REC-SVG-20010904/DTD/svg10.dtd">
<svg version="1.0" xmlns="http://www.w3.org/2000/svg"
 width="700.000000pt" height="700.000000pt" viewBox="0 0 700.000000 700.000000"
 preserveAspectRatio="xMidYMid meet">
<metadata>
Created by potrace 1.11, written by Peter Selinger 2001-2013
</metadata>
<g transform="translate(0.000000,700.000000) scale(0.100000,-0.100000)"
fill="#000000" stroke="none">
<path d="M3424 6983 c-45 -15 -97 -61 -120 -105 -12 -24 -58 -166 -69 -218 -2
-8 -19 -69 -38 -135 -20 -66 -70 -239 -112 -385 -42 -146 -92 -319 -112 -385
-19 -66 -43 -149 -53 -185 -10 -36 -52 -184 -95 -330 -42 -146 -110 -382 -151
-525 -42 -143 -111 -384 -155 -535 -44 -151 -81 -282 -83 -290 -3 -8 -34 -118
-71 -245 -36 -126 -84 -293 -106 -370 -23 -77 -67 -230 -99 -340 -33 -110 -66
-227 -75 -260 -24 -86 -30 -107 -68 -240 -20 -66 -60 -205 -90 -310 -30 -104
-80 -278 -112 -385 -31 -107 -58 -202 -60 -210 -20 -80 -99 -347 -104 -352 -5
-6 -7 2393 -2 2452 1 8 22 -30 47 -85 25 -55 61 -134 81 -175 19 -41 51 -110
70 -153 20 -42 37 -76 39 -74 6 5 124 420 124 434 0 6 -24 63 -53 125 -30 62
-98 210 -152 328 -117 254 -140 291 -198 319 -103 50 -218 11 -274 -92 -17
-30 -18 -151 -18 -2079 l0 -2046 30 -44 c81 -116 242 -115 318 2 9 14 46 129
82 255 37 127 100 347 142 490 41 143 76 267 78 275 9 37 166 574 170 580 2 4
7 21 10 38 3 18 12 51 20 75 7 23 27 89 43 147 42 148 239 832 262 910 25 81
66 225 90 310 10 36 34 119 53 185 19 66 83 284 140 485 58 201 127 437 152
525 26 88 50 174 55 190 4 17 38 134 75 260 37 127 69 239 72 250 6 24 98 341
117 405 7 25 71 246 142 492 70 246 131 444 135 440 3 -4 17 -47 31 -97 14
-49 74 -256 133 -460 106 -369 181 -628 249 -865 20 -69 43 -147 51 -175 8
-27 60 -207 115 -400 56 -192 134 -465 175 -605 40 -140 135 -469 210 -730
261 -903 334 -1156 395 -1365 34 -115 63 -217 65 -225 1 -8 47 -166 100 -350
54 -184 105 -364 115 -400 19 -71 153 -532 171 -592 19 -58 63 -104 119 -123
100 -33 187 3 238 100 14 27 15 234 16 2040 1 1106 -2 2030 -7 2055 -14 83
-101 160 -183 160 -132 0 -156 -25 -282 -297 -55 -120 -119 -258 -142 -307
-23 -48 -52 -111 -64 -140 l-23 -52 44 -150 c24 -82 45 -153 47 -159 20 -81
31 -115 38 -113 5 2 36 62 69 133 106 229 119 259 144 310 l23 50 0 -1240 c0
-682 -1 -1235 -4 -1230 -2 6 -63 215 -135 465 -72 250 -160 556 -195 680 -36
124 -117 405 -180 625 -63 220 -122 421 -130 446 -8 25 -16 54 -19 65 -2 10
-24 91 -50 179 -25 88 -80 277 -121 420 -42 143 -100 343 -129 445 -29 102
-87 302 -129 445 -41 143 -118 411 -172 595 -53 184 -100 349 -104 365 -5 17
-28 100 -53 185 -25 85 -84 288 -131 451 -100 347 -96 336 -131 378 -55 65
-158 93 -241 64z"/>
<path d="M2696 2229 c-28 -88 -118 -408 -118 -419 0 -8 48 -118 107 -245 59
-126 117 -252 130 -280 12 -27 91 -198 175 -380 84 -181 180 -391 214 -465 35
-74 82 -178 106 -230 88 -191 125 -217 295 -208 129 7 150 28 257 263 20 44
56 121 79 170 23 50 67 146 99 215 32 69 78 169 104 223 25 55 46 100 46 102
0 2 24 54 53 116 30 63 61 130 69 149 9 19 39 84 67 144 28 59 51 109 51 111
0 1 26 58 58 126 32 68 64 139 72 157 14 35 13 41 -40 217 -10 33 -28 94 -40
135 -12 41 -25 84 -30 95 -7 19 -8 19 -18 -5 -5 -14 -33 -74 -62 -135 -28 -60
-58 -123 -65 -140 -7 -16 -36 -79 -64 -139 -28 -59 -51 -110 -51 -111 0 -2
-21 -47 -46 -102 -46 -98 -385 -830 -431 -933 -14 -30 -43 -93 -65 -140 -22
-47 -47 -100 -55 -119 -8 -19 -18 -30 -23 -25 -4 5 -112 236 -240 514 -127
278 -236 513 -241 523 -6 10 -36 76 -69 145 -110 240 -122 267 -150 327 -16
33 -58 125 -95 205 -37 80 -69 147 -71 149 -2 2 -6 -2 -8 -10z"/>
</g>
</svg>
