<svg version="1" xmlns="http://www.w3.org/2000/svg" width="1962.667" height="1962.667" viewBox="0 0 1472.000000 1472.000000"><path d="M723.4 27.4C711.9 30.2 700 39.1 694.6 49c-2.3 4.2-7.6 21-15.7 50-1.6 5.8-3.8 13.4-4.9 17-2.7 8.9-22.1 76.1-22.5 78-.2.8-4.5 15.7-9.5 33s-12.4 43-16.5 57c-4 14-8 27.6-8.8 30.2-.8 2.7-1.3 4.8-1.1 4.8.2 0-.1 1.2-.7 2.7-1 2.5-14.5 48.4-15.4 52.3-.3 1.5-8.2 28.6-15 52-2.1 6.9-3.9 13.4-4.2 14.5-.3 1.1-6.5 22.7-13.8 48-7.4 25.3-18.1 62.6-24 83-5.9 20.3-13.8 47.8-17.6 61-3.8 13.2-7.1 24.7-7.3 25.5-.2.8-3 10.3-6.1 21-16.9 58.2-25.3 87.6-26 90-.2.8-1.6 5.5-3 10.5-1.5 4.9-2.8 9.8-3 10.8-.2.9-.6 2.1-.9 2.5-.3.5-.7 1.9-1 3.3-.5 2.5-14.7 52-19.2 66.9-1.4 4.6-2.7 9.1-2.9 10-.2.8-4.4 15.4-9.3 32.5-4.9 17-16 55.5-24.7 85.5-8.6 30-20.2 70-25.7 89s-10.2 35.4-10.5 36.5c-1 3.5-11 38.4-15.8 55-5.6 19.3-9.6 33.2-10.2 36.3-.3 1.2-.8 2.4-1.2 2.6-.5.3-.7-497.6-.2-503.4.1-.8 1 .3 2 2.5s2.8 6.2 4.1 9c2 4.4 6.2 13.5 18.2 39.5 15.2 32.8 22.1 47.8 22.5 49.2.9 3 2.2 2 3.3-2.5.7-2.3 4.1-14.3 7.7-26.7 3.6-12.4 8.7-30.3 11.5-39.9 5.6-19.7 5.9-16.3-2.5-34.1-2.4-5.2-5.3-11.5-6.5-14-2.5-5.6-8-17.4-12-26-1.6-3.6-5.3-11.7-8.2-18-2.9-6.3-7.7-16.6-10.6-22.9-3-6.2-5.4-11.5-5.4-11.6 0-.2-2.3-5.2-5.1-11.1-2.8-6-5.8-12.5-6.6-14.4-11.2-25-37.4-34.4-59.9-21.5-5.3 3.1-12.7 10.8-15.3 15.9-5.3 10.7-5-16.5-4.8 426.1l.2 410 2.8 5.9c3.6 7.7 8.4 13.6 14.4 17.4 18.7 11.9 43.4 5.9 54.1-13 1.8-3.2 5.8-15.2 10-29.8 14-48.7 24.2-84.3 25.7-88.8 1.4-4.7 9.3-32.4 10-35.2.2-.8 3.1-11 6.5-22.5 13.2-45.5 49.2-170.3 51.3-178 .3-1.1 5.1-17.8 10.7-37 5.6-19.3 15.3-53 21.6-75 6.3-22 11.9-41.4 12.4-43 .9-2.8 5.3-17.8 8.5-29 2.1-7.3 26.9-93.4 31.1-108 .8-2.8 2.1-7.3 2.9-10 .7-2.8 3.6-12.7 6.3-22 2.7-9.4 5.2-17.9 5.5-19 .3-1.1 4.5-16 9.5-33 4.9-17.1 15.6-54 23.7-82 8-28.1 16.2-56.4 18.1-63 2-6.6 7.3-25.1 11.9-41 4.6-16 11.8-40.9 16-55.5 8.6-29.5 10.4-35.8 11-38 .2-.8 2.9-10.3 6-21s5.8-20.2 6-21c.2-.8 2.6-9.2 5.4-18.5 5.2-18.2 17.5-60.6 29.7-103 4.1-14.3 10.9-37.7 15-52 13.1-45.3 14.2-48.9 15.4-53.4.6-2.3 1.3-4.1 1.6-3.8.4.4 5.8 18.6 13.9 47.2 2 7.1 4.6 15.7 5.6 19.1 1.1 3.3 2.1 6.9 2.4 8 .6 3 22.4 78.4 24 83.5.9 2.5 1.7 5.4 1.9 6.5.4 1.9 18.5 65.1 22.7 78.9 2.6 9 6 20.6 6.4 22.5.2.8 1.6 5.5 3.1 10.5 3.5 11.9 29 100.2 31.3 108.5 1 3.6 7.1 24.7 13.6 47 6.4 22.3 12.5 43.4 13.5 47 1 3.6 8.2 28.5 16 55.5 7.8 26.9 14.6 50.3 15 52 .5 1.6 5.8 20.1 11.8 41 6.1 20.9 12.6 43.6 14.6 50.5 2 6.9 4 13.8 4.5 15.5.5 1.6 5.1 17.4 10.1 35s10.9 37.9 13 45.1c2.2 7.2 4.6 15.5 5.4 18.5.8 3 3 10.8 5 17.4 4.7 16 15.6 54 21.6 75 5.4 18.9 19.3 67 35.5 123 5.9 20.3 11.6 39.9 12.5 43.5 1 3.6 4.4 15.3 7.5 26 3.1 10.7 5.8 20.2 6 21 .2.8 2.5 8.5 5 17s4.8 16.2 5 17c.1.8 4.7 16.6 10 35s14.5 50.4 20.5 71.1c5.9 20.7 11.7 39.7 12.8 42.2 1.1 2.6 4.2 6.9 6.8 9.7 12 12.9 31.9 15.7 47.4 6.7 5.7-3.3 13.3-12 16-18.3l2.5-5.9.3-409.5c.2-308.5 0-410.9-.9-415-2.7-13.1-10.7-23.3-22.8-29.3-6.2-3-7.1-3.2-17.6-3.2-10.1.1-11.5.3-17 3-6.7 3.3-16.2 12.2-18.7 17.5-.9 1.9-4.4 9.3-7.7 16.4-3.4 7-6.1 13-6.1 13.1 0 .2-2.7 6-6 13s-6 12.8-6 13c0 .2-2.2 5-4.9 10.7-2.7 5.6-7.4 15.9-10.6 22.8-3.1 6.9-7 15.2-8.5 18.5-5.1 10.8-11.1 23.9-13.1 28.6l-2 4.6 4.6 15.9c2.6 8.7 5.2 17.9 5.9 20.4 5.8 21 15.1 52 15.5 52 .3 0 2.4-4 4.6-8.8 2.1-4.8 6-13.2 8.6-18.7 2.5-5.5 6.9-15 9.7-21 2.8-6.1 6.7-14.6 8.7-19 2.1-4.4 6.6-14.3 10.2-22 3.5-7.6 6.5-14 6.6-14.1.1-.1.2 113.5.2 252.6 0 139-.3 252.6-.6 252.4-.4-.2-.9-1.6-1.2-3.1-.2-1.6-4.8-17.9-10.2-36.3-5.4-18.4-10.6-36.4-11.6-40-1-3.6-5.4-19.1-9.9-34.5-8.6-29.7-9.8-34-12.9-45-1.1-3.9-5.9-20.3-10.6-36.5-4.7-16.2-9.5-32.8-10.6-36.9-1.1-4.1-2.2-7.7-2.4-8.1-.2-.3-1.3-3.9-2.4-8-1.1-4.1-3.6-13.1-5.6-20-2-6.9-5.4-18.6-7.5-26-2.1-7.4-5.9-20.5-8.3-29-13.9-47.7-42.8-147.8-44.6-154.5-.5-1.7-5.1-17.9-10.4-36-20.6-71.1-22.9-79.1-23.7-82-.5-1.7-2-7.1-3.5-12-1.4-5-2.9-9.9-3.2-11-.3-1.1-3.7-12.8-7.4-26-3.8-13.2-7.6-26.3-8.4-29-.7-2.8-2.7-9.5-4.4-15-1.7-5.5-3.7-12.5-4.5-15.5-.8-3-5.6-19.7-10.6-37-5.1-17.3-9.5-32.9-10-34.5-.4-1.7-2.2-8-4-14-1.7-6.1-3.6-12.4-4-14-.5-1.7-5.8-20.1-11.8-41-6.1-20.9-14.9-51.3-19.5-67.5-4.7-16.2-10.7-36.7-13.2-45.5-2.6-8.8-4.9-16.9-5.2-18-.3-1.1-1.8-6.3-3.3-11.5-1.6-5.2-4-13.6-5.4-18.5-1.3-5-5.2-18.5-8.6-30-3.4-11.6-6.7-23.3-7.5-26-.7-2.8-2.6-9.1-4-14-1.5-5-4.2-14.4-6.1-21-1.9-6.6-4.3-14.9-5.4-18.5-1-3.6-4-13.9-6.6-23-6.4-22.8-10.9-30.5-22.2-38.4-9-6.2-23.7-8.8-34.8-6.2z"/><path d="M569.2 1000.2c-1.3 4.6-3.2 11.2-4.2 14.8-3.2 10.4-14.1 48.2-15 51.5-.4 1.6-1.5 5.5-2.4 8.7l-1.7 5.6 4.7 10.4c2.5 5.6 6.4 14.1 8.6 18.8 2.2 4.7 8.1 17.3 13 28 8.7 19 17.9 38.8 24 52 1.7 3.6 4.2 9 5.6 12 1.3 3 5.4 11.8 9 19.5 10.6 23.1 12.1 26.3 20.4 44.5 4.4 9.6 8.3 17.9 8.7 18.5.5.5 1.5 2.8 2.4 5 .8 2.2 3.5 8.3 6 13.5 2.5 5.2 7 14.9 10 21.5s7.2 15.6 9.2 20c2.1 4.4 7.5 16.3 12.2 26.5 4.7 10.2 10.7 23.2 13.4 28.9 2.7 5.7 6.8 14.5 9 19.6 6.4 14.4 15.4 23.2 27.3 26.5 6.5 1.8 29.5 2 36.8.3 9.4-2.1 16.9-6.9 22.2-14.3 1.8-2.5 6.8-12 11-21.3 4.2-9.2 9.5-20.7 11.7-25.5 2.3-4.8 5.3-11.2 6.6-14.2 1.4-3 4.7-10.2 7.4-15.8 2.7-5.7 4.9-10.5 4.9-10.7 0-.3 4.1-9.1 12-26 1.5-3.3 5.3-11.4 8.3-18 3-6.6 7.4-16.1 9.7-21 2.3-5 6.7-14.4 9.7-21 3-6.6 7-15.2 8.8-19 1.8-3.9 5.5-12 8.3-18 2.7-6.1 7.1-15.4 9.6-20.8 2.5-5.5 4.6-10 4.6-10.2 0-.2 2.5-5.6 5.6-12.1 3.1-6.6 7.6-16.4 10.1-21.9s6.2-13.6 8.3-18c2.1-4.4 5-10.7 6.5-14 3.1-7 6.4-13.9 13.5-28.9 2.8-6 5.4-12.1 5.6-13.6.6-2.7-3-15.8-19.6-72-1-3.6-2.6-9.1-3.5-12.3-1-3.3-2-5.5-2.4-5-.4.4-2.2 4.2-4.1 8.3-1.8 4.1-5.1 11.3-7.3 16-3.7 8-24.3 52.6-30.9 67-1.7 3.6-12.5 27-24 52-11.6 25-22.3 48.3-23.9 51.7-1.6 3.5-4.2 9.1-5.8 12.5-4.9 10.8-45.2 98-48.1 104.3-1.5 3.3-5.5 11.8-8.8 19-3.2 7.1-7.3 15.9-9 19.5-7.6 16.5-10.6 22.8-12.4 27l-2 4.5-2.1-4.5c-1.1-2.5-4.5-9.6-7.4-15.8-2.9-6.3-5.3-11.5-5.3-11.7 0-.1-2.2-4.9-4.9-10.6-2.6-5.7-6-12.9-7.4-15.9-1.4-3-4.2-9.1-6.2-13.5s-5.9-13-8.7-19c-2.8-6.1-8.1-17.5-11.8-25.5-3.7-8-7.9-17-9.3-20-1.3-3-6.6-14.5-11.7-25.5s-10.4-22.5-11.7-25.5c-1.4-3-7-15.2-12.5-27s-11.9-25.7-14.3-31c-2.4-5.2-6.2-13.6-8.5-18.5-5.9-12.6-10.3-22-13.5-29-3-6.7-5.4-11.9-11.5-25-2.3-5-6.4-13.7-9-19.5-8.8-19.5-20.8-45-21.2-45-.2 0-1.3 3.7-2.6 8.2z"/></svg>