<?xml version="1.0" encoding="UTF-8"?>
<svg width="1472" height="1472" version="1.1" viewBox="0 0 389.5 389.5" xmlns="http://www.w3.org/2000/svg" xmlns:cc="http://creativecommons.org/ns#" xmlns:dc="http://purl.org/dc/elements/1.1/" xmlns:rdf="http://www.w3.org/1999/02/22-rdf-syntax-ns#" xmlns:xlink="http://www.w3.org/1999/xlink">
 <metadata>
  <rdf:RDF>
   <cc:Work rdf:about="">
    <dc:format>image/svg+xml</dc:format>
    <dc:type rdf:resource="http://purl.org/dc/dcmitype/StillImage"/>
    <dc:title/>
   </cc:Work>
  </rdf:RDF>
 </metadata>
 <g transform="matrix(6.997 0 0 6.997 -75.64 .8065)">
  <g transform="matrix(.8878 0 0 .8878 27.42 -69.92)">
   <g transform="translate(46.57)" fill="#f4a93b">
    <path d="m-18.63 100v27.87c0 0.7317-0.5939 1.326-1.327 1.326-0.5898 0-1.109-0.3914-1.273-0.9577l-4.262-14.78-0.8943-3.099-7.535-26.12-7.535 26.12-0.8943 3.099-4.262 14.78c-0.1626 0.5664-0.6821 0.9577-1.273 0.9577-0.7331 0-1.327-0.5939-1.327-1.326v-27.87c0-0.7827 0.6353-1.417 1.418-1.417 0.5526 0 1.054 0.3211 1.286 0.8227l2.195 4.756-0.8943 3.098-1.68-3.639v17.52l2.956-10.25 0.153-0.5361 0.8943-3.098 7.483-25.93c0.1902-0.6587 0.7951-1.113 1.481-1.113 0.6876 0 1.291 0.4548 1.481 1.113l7.483 25.93 0.8943 3.098 0.153 0.5361 2.956 10.25v-17.52l-1.68 3.639-0.8943-3.098 2.195-4.756c0.2315-0.5016 0.7331-0.8227 1.286-0.8227 0.7827 0 1.418 0.6339 1.418 1.417"/>
    <path d="m-26.4 116.6-5.478 11.87c-0.2164 0.4699-0.6863 0.7703-1.203 0.7703h-0.6311c-0.5168 0-0.9867-0.3004-1.203-0.7703l-5.478-11.87 0.8943-3.098 6.102 13.22 6.102-13.22z"/>
   </g>
  </g>
  <g transform="matrix(1.675 0 0 1.675 -8.459 -38.42)" fill="#999" stroke-width=".2646" style="font-feature-settings:normal;font-variant-caps:normal;font-variant-ligatures:normal;font-variant-numeric:normal" aria-label="RESARDIS">
   <path d="m13.02 55.39h-0.4128v-4.802h1.885q0.6191 0 0.9493 0.3508 0.3371 0.3508 0.3371 0.9837 0 0.5572-0.2752 0.9012-0.2683 0.344-0.7842 0.4128l1.183 2.153h-0.4609l-1.149-2.126h-1.273zm1.472-2.476q0.4128 0 0.626-0.227 0.2201-0.2339 0.2201-0.5916v-0.3302q0-0.3508-0.2201-0.5778-0.2133-0.2339-0.626-0.2339h-1.472v1.961z"/>
   <path d="m16.99 55.39v-4.802h2.807v0.3646h-2.394v1.816h2.277v0.3646h-2.277v1.892h2.394v0.3646z"/>
   <path d="m22.21 55.47q-0.5916 0-0.9906-0.2201-0.3921-0.227-0.6742-0.5985l0.3096-0.2545q0.2545 0.3371 0.571 0.5228 0.3233 0.1857 0.798 0.1857 0.5572 0 0.853-0.2614 0.3027-0.2683 0.3027-0.7429 0-0.4403-0.2545-0.6466t-0.7154-0.3027l-0.4265-0.08943q-0.6879-0.1376-0.9975-0.4609-0.3096-0.3233-0.3096-0.8255 0-0.3164 0.1101-0.5503 0.1101-0.2408 0.3096-0.399 0.2064-0.1582 0.4884-0.2408 0.2889-0.08255 0.6329-0.08255 0.5366 0 0.908 0.1926 0.3715 0.1926 0.6122 0.5435l-0.3096 0.227q-0.1995-0.2889-0.5022-0.4403-0.2958-0.1582-0.7292-0.1582-0.5159 0-0.8186 0.227-0.2958 0.2201-0.2958 0.6673 0 0.4265 0.2683 0.626 0.2683 0.1995 0.7154 0.2889l0.4265 0.08943q0.7154 0.1582 1.004 0.4884t0.2889 0.8255q0 0.6604-0.4196 1.025-0.4196 0.3646-1.156 0.3646z"/>
   <path d="m27.86 55.39-0.5228-1.493h-2.043l-0.5228 1.493h-0.4128l1.699-4.802h0.5297l1.706 4.802zm-1.534-4.41h-0.02752l-0.9012 2.559h1.83z"/>
   <path d="m29.56 55.39h-0.4128v-4.802h1.885q0.6191 0 0.9493 0.3508 0.3371 0.3508 0.3371 0.9837 0 0.5572-0.2752 0.9012-0.2683 0.344-0.7842 0.4128l1.183 2.153h-0.4609l-1.149-2.126h-1.273zm1.472-2.476q0.4128 0 0.626-0.227 0.2201-0.2339 0.2201-0.5916v-0.3302q0-0.3508-0.2201-0.5778-0.2133-0.2339-0.626-0.2339h-1.472v1.961z"/>
   <path d="m33.53 50.58h1.527q0.9287 0 1.431 0.5985 0.5091 0.5985 0.5091 1.802t-0.5091 1.802q-0.5022 0.5985-1.431 0.5985h-1.527zm1.534 4.437q0.7086 0 1.101-0.454 0.3921-0.4609 0.3921-1.266v-0.6329q0-0.8049-0.3921-1.259-0.3921-0.4609-1.101-0.4609h-1.121v4.072z"/>
   <path d="m37.86 55.39v-0.344h0.7017v-4.114h-0.7017v-0.344h1.816v0.344h-0.7017v4.114h0.7017v0.344z"/>
   <path d="m42.07 55.47q-0.5916 0-0.9906-0.2201-0.3921-0.227-0.6742-0.5985l0.3096-0.2545q0.2545 0.3371 0.571 0.5228 0.3233 0.1857 0.798 0.1857 0.5572 0 0.853-0.2614 0.3027-0.2683 0.3027-0.7429 0-0.4403-0.2545-0.6466t-0.7154-0.3027l-0.4265-0.08943q-0.6879-0.1376-0.9975-0.4609-0.3096-0.3233-0.3096-0.8255 0-0.3164 0.1101-0.5503 0.1101-0.2408 0.3096-0.399 0.2064-0.1582 0.4884-0.2408 0.2889-0.08255 0.6329-0.08255 0.5366 0 0.908 0.1926 0.3715 0.1926 0.6122 0.5435l-0.3096 0.227q-0.1995-0.2889-0.5022-0.4403-0.2958-0.1582-0.7292-0.1582-0.5159 0-0.8186 0.227-0.2958 0.2201-0.2958 0.6673 0 0.4265 0.2683 0.626 0.2683 0.1995 0.7154 0.2889l0.4265 0.08943q0.7154 0.1582 1.004 0.4884t0.2889 0.8255q0 0.6604-0.4196 1.025t-1.156 0.3646z"/>
  </g>
 </g>
</svg>
