<?xml version="1.0" encoding="UTF-8"?>
<svg width="260" height="60" version="1.1" viewBox="0 0 68.8 15.87" xmlns="http://www.w3.org/2000/svg" xmlns:cc="http://creativecommons.org/ns#" xmlns:dc="http://purl.org/dc/elements/1.1/" xmlns:rdf="http://www.w3.org/1999/02/22-rdf-syntax-ns#">
 <metadata>
  <rdf:RDF>
   <cc:Work rdf:about="">
    <dc:format>image/svg+xml</dc:format>
    <dc:type rdf:resource="http://purl.org/dc/dcmitype/StillImage"/>
    <dc:title/>
   </cc:Work>
  </rdf:RDF>
 </metadata>
 <g transform="matrix(.127 0 0 .05867 1.486 8.277)" fill="#fff">
  <rect x="-11.7" y="-141.1" width="541.6" height="270.6" fill="#fff"/>
 </g>
 <g transform="matrix(.2458 0 0 .2458 19.26 -4.347)">
  <path d="m-27.3 45v27.87c0 0.7317-0.5939 1.326-1.327 1.326-0.5898 0-1.109-0.3914-1.273-0.9577l-4.262-14.78-0.8943-3.099-7.535-26.12-7.535 26.12-0.8943 3.099-4.262 14.78c-0.1626 0.5664-0.6821 0.9577-1.273 0.9577-0.7331 0-1.327-0.5939-1.327-1.326v-27.87c0-0.7827 0.6353-1.417 1.418-1.417 0.5526 0 1.054 0.3211 1.286 0.8227l2.195 4.756-0.8943 3.098-1.68-3.639v17.52l2.956-10.25 0.153-0.5361 0.8943-3.098 7.483-25.93c0.1902-0.6587 0.7951-1.113 1.481-1.113 0.6876 0 1.291 0.4548 1.481 1.113l7.483 25.93 0.8943 3.098 0.153 0.5361 2.956 10.25v-17.52l-1.68 3.639-0.8943-3.098 2.195-4.756c0.2315-0.5016 0.7331-0.8227 1.286-0.8227 0.7827 0 1.418 0.6339 1.418 1.417" fill="#f4a93b"/>
  <path d="m-36.13 61.56-5.478 11.87c-0.2164 0.4699-0.6863 0.7703-1.203 0.7703h-0.6311c-0.5168 0-0.9867-0.3004-1.203-0.7703l-5.478-11.87 0.8943-3.098 6.102 13.22 6.102-13.22z" fill="#f4a93b"/>
  <g fill="#999" stroke-width=".2646" style="font-feature-settings:normal;font-variant-caps:normal;font-variant-ligatures:normal;font-variant-numeric:normal" aria-label="RESARDIS">
   <path d="m-16.89 74.19h-2.667v-31.03h12.18q4.001 0 6.134 2.267 2.178 2.267 2.178 6.356 0 3.6-1.778 5.823-1.734 2.222-5.067 2.667l7.645 13.91h-2.978l-7.423-13.74h-8.223zm9.512-16q2.667 0 4.045-1.467 1.422-1.511 1.422-3.823v-2.134q0-2.267-1.422-3.734-1.378-1.511-4.045-1.511h-9.512v12.67z" style="font-feature-settings:normal;font-variant-caps:normal;font-variant-ligatures:normal;font-variant-numeric:normal"/>
   <path d="m8.745 74.19v-31.03h18.14v2.356h-15.47v11.73h14.71v2.356h-14.71v12.22h15.47v2.356z" style="font-feature-settings:normal;font-variant-caps:normal;font-variant-ligatures:normal;font-variant-numeric:normal"/>
   <path d="m42.49 74.73q-3.823 0-6.401-1.422-2.534-1.467-4.356-3.867l2-1.645q1.645 2.178 3.689 3.378 2.089 1.2 5.156 1.2 3.6 0 5.512-1.689 1.956-1.734 1.956-4.801 0-2.845-1.645-4.178t-4.623-1.956l-2.756-0.5778q-4.445-0.889-6.445-2.978t-2-5.334q0-2.045 0.7112-3.556 0.7112-1.556 2-2.578 1.334-1.022 3.156-1.556 1.867-0.5334 4.089-0.5334 3.467 0 5.867 1.245t3.956 3.512l-2 1.467q-1.289-1.867-3.245-2.845-1.911-1.022-4.712-1.022-3.334 0-5.29 1.467-1.911 1.422-1.911 4.312 0 2.756 1.734 4.045t4.623 1.867l2.756 0.5778q4.623 1.022 6.49 3.156t1.867 5.334q0 4.267-2.711 6.623t-7.468 2.356z" style="font-feature-settings:normal;font-variant-caps:normal;font-variant-ligatures:normal;font-variant-numeric:normal"/>
   <path d="m78.96 74.19-3.378-9.646h-13.2l-3.378 9.646h-2.667l10.98-31.03h3.423l11.02 31.03zm-9.912-28.49h-0.1778l-5.823 16.54h11.82z" style="font-feature-settings:normal;font-variant-caps:normal;font-variant-ligatures:normal;font-variant-numeric:normal"/>
   <path d="m89.98 74.19h-2.667v-31.03h12.18q4 0 6.134 2.267 2.178 2.267 2.178 6.356 0 3.6-1.778 5.823-1.734 2.222-5.067 2.667l7.645 13.91h-2.978l-7.423-13.74h-8.223zm9.512-16q2.667 0 4.045-1.467 1.422-1.511 1.422-3.823v-2.134q0-2.267-1.422-3.734-1.378-1.511-4.045-1.511h-9.512v12.67z" style="font-feature-settings:normal;font-variant-caps:normal;font-variant-ligatures:normal;font-variant-numeric:normal"/>
   <path d="m115.6 43.17h9.868q6.001 0 9.246 3.867 3.289 3.867 3.289 11.65t-3.289 11.65q-3.245 3.867-9.246 3.867h-9.868zm9.912 28.67q4.578 0 7.112-2.934 2.534-2.978 2.534-8.179v-4.089q0-5.201-2.534-8.134-2.534-2.978-7.112-2.978h-7.245v26.31z" style="font-feature-settings:normal;font-variant-caps:normal;font-variant-ligatures:normal;font-variant-numeric:normal"/>
   <path d="m143.6 74.19v-2.222h4.534v-26.58h-4.534v-2.222h11.73v2.222h-4.534v26.58h4.534v2.222z" style="font-feature-settings:normal;font-variant-caps:normal;font-variant-ligatures:normal;font-variant-numeric:normal"/>
   <path d="m170.8 74.73q-3.823 0-6.401-1.422-2.534-1.467-4.356-3.867l2-1.645q1.645 2.178 3.689 3.378 2.089 1.2 5.156 1.2 3.6 0 5.512-1.689 1.956-1.734 1.956-4.801 0-2.845-1.645-4.178t-4.623-1.956l-2.756-0.5778q-4.445-0.889-6.445-2.978t-2-5.334q0-2.045 0.7112-3.556 0.7112-1.556 2-2.578 1.334-1.022 3.156-1.556 1.867-0.5334 4.089-0.5334 3.467 0 5.867 1.245t3.956 3.512l-2 1.467q-1.289-1.867-3.245-2.845-1.911-1.022-4.712-1.022-3.334 0-5.29 1.467-1.911 1.422-1.911 4.312 0 2.756 1.734 4.045t4.623 1.867l2.756 0.5778q4.623 1.022 6.49 3.156t1.867 5.334q0 4.267-2.711 6.623t-7.468 2.356z" style="font-feature-settings:normal;font-variant-caps:normal;font-variant-ligatures:normal;font-variant-numeric:normal"/>
  </g>
 </g>
</svg>
