<?xml version="1.0" encoding="UTF-8"?>
<svg width="1472" height="1472" version="1.1" viewBox="0 0 389.5 389.5" xmlns="http://www.w3.org/2000/svg" xmlns:cc="http://creativecommons.org/ns#" xmlns:dc="http://purl.org/dc/elements/1.1/" xmlns:rdf="http://www.w3.org/1999/02/22-rdf-syntax-ns#" xmlns:xlink="http://www.w3.org/1999/xlink">
 <metadata>
  <rdf:RDF>
   <cc:Work rdf:about="">
    <dc:format>image/svg+xml</dc:format>
    <dc:type rdf:resource="http://purl.org/dc/dcmitype/StillImage"/>
    <dc:title/>
   </cc:Work>
  </rdf:RDF>
 </metadata>
 <g transform="matrix(7.671 0 0 7.671 97.07 -608.4)">
  <g transform="translate(46.57)" fill="#f4a93b">
   <path d="m-18.63 100v27.87c0 0.7317-0.5939 1.326-1.327 1.326-0.5898 0-1.109-0.3914-1.273-0.9577l-4.262-14.78-0.8943-3.099-7.535-26.12-7.535 26.12-0.8943 3.099-4.262 14.78c-0.1626 0.5664-0.6821 0.9577-1.273 0.9577-0.7331 0-1.327-0.5939-1.327-1.326v-27.87c0-0.7827 0.6353-1.417 1.418-1.417 0.5526 0 1.054 0.3211 1.286 0.8227l2.195 4.756-0.8943 3.098-1.68-3.639v17.52l2.956-10.25 0.153-0.5361 0.8943-3.098 7.483-25.93c0.1902-0.6587 0.7951-1.113 1.481-1.113 0.6876 0 1.291 0.4548 1.481 1.113l7.483 25.93 0.8943 3.098 0.153 0.5361 2.956 10.25v-17.52l-1.68 3.639-0.8943-3.098 2.195-4.756c0.2315-0.5016 0.7331-0.8227 1.286-0.8227 0.7827 0 1.418 0.6339 1.418 1.417"/>
   <path d="m-26.4 116.6-5.478 11.87c-0.2164 0.4699-0.6863 0.7703-1.203 0.7703h-0.6311c-0.5168 0-0.9867-0.3004-1.203-0.7703l-5.478-11.87 0.8943-3.098 6.102 13.22 6.102-13.22z"/>
  </g>
 </g>
</svg>
